<svg xmlns:xlink="http://www.w3.org/1999/xlink" xmlns="http://www.w3.org/2000/svg" viewBox="0 0 537.17 160.16" xml:space="preserve" width="537.17"  height="160.16" >
                            <style>.st6{fill:#FFF}.st7{fill:#FFF}</style>
                            <g id="Laag_1">
                                <path class="st6" d="M16.9 59.14c-3.72-14.48 9.79-19.48 11.48-19.98 0 0 4.68-1.27 8.46-1.91 2.14-.37 3.23-.13 3.28-2.24.04-1.71-1.57-9.7 6.86-16.12 3.83-2.91 6.46-3.47 10.49-3.24 1.55.09 5.07 1.42 4.47 5.87-.05.34-.16.85-.5 1.44l-.4.58c-3.46 4.29-5.83 9.75-6.78 15.67-1.67 10.41 1.35 20.73 7.89 26.94.06.05.7.55 1.34 1.04l-.93 1.21c-5.33 5.61-14.49 8.24-23.8 6.74-5.35-.86-10.24-2.98-14.17-6.14-.06-.03-6.18-3.98-7.69-9.86" fill="#FFFFFF"></path>
                                <path class="st6" d="M68.03 108.18c3.16-3.92 5.28-8.82 6.14-14.17 1.5-9.32-1.13-18.47-6.73-23.8l-1.21-.93c-.5.63-.99 1.27-1.04 1.33-6.2 6.55-16.52 9.57-26.94 7.89-5.92-.95-11.38-3.32-15.68-6.78l-.57-.4c-.6-.34-1.09-.46-1.44-.5-4.45-.61-5.79 2.92-5.87 4.47-.23 4.02.32 6.66 3.23 10.48 6.42 8.43 14.41 6.83 16.12 6.86 2.1.04 1.86 1.13 2.23 3.28.65 3.78 1.92 8.45 1.92 8.45.49 1.7 5.5 15.2 19.98 11.48 5.88-1.51 9.83-7.62 9.86-7.66" fill="#FFFFFF"></path>
                                <path class="st6" d="M107.21 64.72c-3.92-3.16-8.82-5.28-14.17-6.14-9.31-1.5-18.47 1.13-23.8 6.74l-.93 1.21c.64.49 1.28.98 1.34 1.04 6.54 6.2 9.57 16.52 7.89 26.93-.96 5.93-3.32 11.38-6.78 15.68l-.4.58c-.34.59-.46 1.09-.5 1.44-.61 4.44 2.91 5.78 4.47 5.87 4.03.23 6.66-.32 10.49-3.24 8.43-6.42 6.82-14.41 6.86-16.13.04-2.1 1.13-1.86 3.27-2.23 3.78-.65 8.46-1.92 8.46-1.92 1.69-.49 15.2-5.5 11.48-19.98-1.52-5.88-7.64-9.82-7.68-9.85" fill="#FFFFFF"></path>
                                <path class="st7" d="M63.75 25.54c-3.16 3.92-5.28 8.82-6.14 14.17-1.5 9.32 1.14 18.48 6.74 23.8l1.2.93c.5-.63.99-1.27 1.04-1.34 6.21-6.54 16.53-9.57 26.94-7.89 5.93.96 11.38 3.33 15.68 6.78l.57.41c.6.34 1.1.45 1.44.49 4.44.62 5.78-2.91 5.87-4.46.23-4.03-.32-6.66-3.24-10.49-6.42-8.43-14.41-6.82-16.13-6.85-2.1-.05-1.86-1.13-2.23-3.28-.65-3.78-1.91-8.45-1.91-8.45-.49-1.7-5.51-15.2-19.98-11.48-5.88 1.5-9.82 7.61-9.85 7.66" fill="#FFFFFF"></path>
                                <path class="st6" d="M169.9 89.07c-13.67 0-20.93-8.03-20.93-22.21V48.92c0-14.18 7.26-22.21 20.93-22.21 4.87 0 11.1 1.19 11.1 1.19v10.6s-7.26-.85-11.1-.85c-7.26 0-9.4 5.04-9.4 12.13V66c0 7.09 2.05 12.13 9.82 12.13 3.84 0 10.67-.94 10.67-.94v10.68c.01 0-6.23 1.2-11.09 1.2M189.45 27.57h11.53v60.65h-11.53zM231.74 62.07c0-4.86-1.37-7.77-5.98-7.77-4.87 0-6.32 3.16-6.41 8.97h12.39v-1.2zm-12.22 9.49c.6 4.7 3.07 7 8.37 7 4.61 0 12.81-1.37 12.81-1.37v10.34s-7.43 1.54-13.49 1.54c-11.53 0-19.39-5.55-19.39-20.67v-3.58c0-12.05 6.07-20.16 17.77-20.16 11.96 0 16.83 8.11 16.83 18.11v8.8h-22.9zM270.39 70.87h-5.81c-4.11 0-5.73 1.71-5.73 4.53 0 2.65 1.54 4.28 4.87 4.28 2.14 0 4.44-.77 6.67-1.8v-7.01zm.86 17.34v-2.22c-2.82 1.71-6.32 3.07-10.34 3.07-8.37 0-13.58-3.93-13.58-13.24 0-8.71 5.72-13.24 15.38-13.24 2.91 0 5.47.17 7.69.51v-2.22c0-3.93-1.88-5.54-6.23-5.54-4.87 0-13.41 1.7-13.41 1.7V46.87s7.86-2.22 15.29-2.22c12.56 0 15.89 5.64 15.89 16.23v27.33h-10.69zM313.32 88.21V60.88c0-3.5-1.2-5.54-4.95-5.54-2.05 0-4.44.76-6.58 1.79v31.09h-11.53V45.51h10.67v2.82c2.65-1.88 6.41-3.67 11.11-3.67 9.65 0 12.81 5.81 12.81 14.52v29.04h-11.53zM393.51 62.07c0-4.86-1.36-7.77-5.98-7.77-4.87 0-6.32 3.16-6.41 8.97h12.38v-1.2zm-12.21 9.49c.6 4.7 3.07 7 8.37 7 4.61 0 12.81-1.37 12.81-1.37v10.34s-7.43 1.54-13.49 1.54c-11.53 0-19.39-5.55-19.39-20.67v-3.58c0-12.05 6.06-20.16 17.77-20.16 11.96 0 16.83 8.11 16.83 18.11v8.8h-22.9zM432.81 70.87H427c-4.1 0-5.72 1.71-5.72 4.53 0 2.65 1.54 4.28 4.87 4.28 2.13 0 4.44-.77 6.67-1.8v-7.01zm.85 17.34v-2.22c-2.82 1.71-6.32 3.07-10.33 3.07-8.37 0-13.58-3.93-13.58-13.24 0-8.71 5.72-13.24 15.37-13.24 2.91 0 5.47.17 7.69.51v-2.22c0-3.93-1.88-5.54-6.24-5.54-4.87 0-13.41 1.7-13.41 1.7V46.87s7.86-2.22 15.29-2.22c12.55 0 15.89 5.64 15.89 16.23v27.33h-10.68zM466.94 89.07c-8.03 0-16.4-2.48-16.4-2.48V76.6s10.34 2.23 15.38 2.23c4.87 0 6.41-1.02 6.41-3.16s-2.39-2.74-5.55-3.17l-2.99-.43c-5.29-.77-12.81-2.82-12.81-13.16 0-10.25 7.18-14.26 16.91-14.26 7.43 0 14.26 1.79 14.26 1.79v9.91s-8.11-1.46-13.66-1.46c-4.53 0-5.98.86-5.98 2.99 0 2.05 2.31 2.39 4.95 2.73l3.59.51c5.81.85 12.81 3.25 12.81 13.24-.01 11.12-5.99 14.71-16.92 14.71M512.89 62.07c0-4.86-1.37-7.77-5.98-7.77-4.87 0-6.32 3.16-6.41 8.97h12.39v-1.2zm-12.21 9.49c.6 4.7 3.08 7 8.37 7 4.61 0 12.81-1.37 12.81-1.37v10.34s-7.43 1.54-13.5 1.54c-11.53 0-19.39-5.55-19.39-20.67v-3.58c0-12.05 6.06-20.16 17.77-20.16 11.96 0 16.83 8.11 16.83 18.11v8.8h-22.89zM332.72 88.56V27.83h11.54v50.04h23.1v10.69z" fill="#FFFFFF"></path>
                                <path class="st7" d="M263.36 114.36a5.42 5.42 0 0 0-1.72-1.78c-.71-.46-1.51-.81-2.4-1.05-.89-.24-1.8-.4-2.73-.48-.93-.08-1.84-.11-2.74-.1-.9.01-1.7.03-2.42.07-.02-.51.06-1 .24-1.49s.38-.97.58-1.46c.17-.42.34-.86.5-1.32.22-.63.35-1.31.3-1.98-.04-.67-.2-1.34-.47-1.99-.29-.69-.66-1.3-1.12-1.83-.46-.53-1-.96-1.63-1.29-.63-.33-1.33-.48-2.11-.44-.66.03-1.23.29-1.73.78-.5.49-.93 1.13-1.28 1.94s-.64 1.72-.86 2.73c-.22 1.01-.4 2.06-.52 3.16s-.22 2.19-.27 3.28c-.05 1.09-.08 2.1-.08 3.03 0 .93.01 1.73.03 2.42.02.69.03 1.18.05 1.48.02.33.02.74.01 1.23s.02.98.09 1.48c.06.46-.01 1.7 1.1 2.09.15.05.33.05.47.01 1.47-.37.98-6.53.97-6.68.17-.28.45-.57.86-.87.4-.3.9-.6 1.48-.9.58-.3 1.21-.57 1.89-.83a29.306 29.306 0 0 1 3.83-1.17c.58-.13 1.06-.2 1.45-.22.75-.03 1.5.04 2.27.23s1.47.48 2.1.87c.63.39 1.15.88 1.57 1.47.42.59.64 1.29.68 2.1a7.98 7.98 0 0 1-.84 4.03 11.03 11.03 0 0 1-2.51 3.28c-1.05.93-2.23 1.67-3.55 2.23-1.32.55-2.65.86-3.99.93-1.07.05-2.1-.04-3.08-.26s-1.92-.56-2.8-1.01c-.89-.45-1.73-.99-2.54-1.63-.81-.64-1.59-1.34-2.34-2.11l.01.18c.03.66.25 1.27.67 1.85.42.58.95 1.1 1.6 1.56.65.46 1.38.89 2.19 1.29s1.62.72 2.44.96c.82.25 1.61.43 2.38.56.77.13 1.41.18 1.91.16.95-.05 1.94-.22 2.96-.52 1.02-.3 2.01-.72 2.99-1.24.98-.52 1.89-1.14 2.74-1.83.85-.7 1.59-1.48 2.22-2.34.63-.87 1.12-1.79 1.46-2.78.34-.99.49-2.02.44-3.09-.06-1.08-.31-1.98-.75-2.71zm-12.65-7.05c-.28.78-.66 1.5-1.15 2.16-.49.66-1.05 1.3-1.68 1.89s-1.29 1.15-1.98 1.66c0-.09-.01-.25-.02-.47l-.03-.69-.03-.69c-.01-.22-.02-.38-.02-.47-.01-.27-.02-.69-.01-1.25 0-.57.04-1.2.11-1.91.07-.7.16-1.43.26-2.16.1-.74.25-1.42.44-2.04.2-.62.43-1.13.71-1.53.28-.4.61-.61 1-.63.48-.02.89.07 1.24.28.35.21.64.49.85.83.21.35.37.74.48 1.19.11.44.18.87.2 1.29.02.92-.09 1.77-.37 2.54zM294.04 120.55c-.09-.37-.47-.29-.75.05 0 0-1.01 1.12-1.54 1.69-.53.58-1.09 1.11-1.69 1.6-.61.49-1.24.9-1.92 1.23-.67.33-1.38.51-2.12.55-.96.05-1.6-.21-1.94-.76-.34-.55-.53-1.24-.57-2.08-.03-.69-.05-1.46-.06-2.33-.01-.87.06-1.75.21-2.65.15-.9.39-1.74.71-2.52.32-.78.79-1.79 1.48-1.84.45 0 .7.48.8.79.1.31.2.61.29.91.09.29.23.54.42.74.19.2.75.41 1 .05.87-1.23-.99-4.5-1.37-4.96-.38-.46-.88-.68-1.51-.65-.51.02-.94.31-1.3.87-.36.56-.68 1.26-.95 2.11-.28.85-.49 1.78-.65 2.79a49.09 49.09 0 0 0-.38 2.89c-.05.54-.1 1.03-.13 1.5-.05.03-1.24 1.31-1.41 1.46-.52.44-1.06.91-1.64 1.4-.58.49-1.19.95-1.84 1.36-.65.42-1.33.77-2.04 1.06-.7.29-1.41.45-2.13.48-.18.01-.45-.01-.81-.05-.36-.04-.71-.12-1.04-.22h-.02c-.78-.24-1.29-1-1.32-1.81l-.17-3.67c-.02-.42.12-.81.42-1.19.3-.37.66-.73 1.09-1.08.43-.35.91-.71 1.43-1.1.52-.38 1-.79 1.44-1.21.44-.42.81-.89 1.1-1.4.29-.51.42-1.07.39-1.7-.01-.27-.09-.48-.23-.64-.14-.16-.31-.27-.51-.34a3.2 3.2 0 0 0-.63-.13c-.23-.02-.43-.03-.61-.02-1.13.05-2.01.32-2.63.8-.62.48-1.12 1.08-1.51 1.82-.38.74-.7 1.52-.94 2.35-.25.83-.53 1.63-.85 2.39-.22.49-.46.78-.72.88-.26.1-.51.18-.75.24s-.43.16-.57.3c-.14.14-.2.51-.17 1.11 0 .06.01.17.04.33.02.16.06.3.11.42s.14.2.26.26c.12.05.28.02.49-.11l1.04-.68c.19.89.36 1.72.52 2.49.16.77.4 1.43.74 1.98.34.55.8.96 1.38 1.24.58.27 1.39.38 2.43.33 1.04-.05 2.02-.24 2.93-.58.91-.34 1.77-.79 2.58-1.33.81-.55 1.57-1.17 2.29-1.86.62-.6 1.2-1.24 1.75-1.9-.01.32-.02.56-.01.7.03.66.1 1.26.22 1.8.11.55.3 1.02.56 1.41.26.39.61.69 1.05.89.44.2 1.01.29 1.69.26.95-.04 1.86-.24 2.73-.58.87-.34 1.66-.78 2.38-1.32s1.38-1.19 1.97-1.93c.59-.75 1.08-1.56 1.45-2.44.02-.06.04-.45.04-.45zm-23.51-4.18c.09-.18.25-.38.47-.59.22-.21.41-.39.59-.52.17-.14.26-.15.27-.05.06.25-.08.56-.42.93-.34.37-.63.54-.89.5-.11 0-.11-.09-.02-.27zM313.01 120.29c-.33.33-.65.64-.92.98s-.52.68-.76 1.02-.52.65-.85.91c-.33.27-.72.5-1.18.71-.36.16-.81.34-1.35.36-.63.03-1.18-.35-1.44-.92-.06-.14-.12-.29-.17-.44-.12-.37-.21-.74-.28-1.11-.06-.37-.1-.65-.11-.82-.04-.81-.01-1.6.07-2.38.08-.78.16-1.57.25-2.36.08-.8.16-1.6.25-2.41.08-.76.1-1.52.07-2.28 0-.09-.04-.18-.1-.25-.55-.58-1.22-.76-2.02-.56-.84.22-1.75.7-2.73 1.45s-1.95 1.68-2.92 2.78a33.06 33.06 0 0 0-2.62 3.42c-.78 1.17-1.41 2.28-1.88 3.34-.47 1.05-.7 1.89-.67 2.52.07 1.52.9 2.24 2.48 2.17a5.26 5.26 0 0 0 2.23-.62c.71-.38 1.4-.83 2.04-1.37.65-.54 1.25-1.12 1.8-1.74.55-.62 1.04-1.21 1.46-1.77.14.53.29 1.11.44 1.75.15.64.36 1.22.64 1.74.28.53.64.97 1.07 1.34.44.37 1 .54 1.68.5.81-.04 1.63-.25 2.46-.63.83-.38 1.58-.87 2.24-1.47s1.2-1.27 1.61-2.02c.41-.75.6-1.5.57-2.25-.07-.34-.19-.79-1.36.41zm-8.81-5.28c-1.53 4.28-3.54 8.55-7.69 9.68-1.55.42-1.87-1.03-.68-3.33 1.26-2.44 4.22-6.32 6.59-7.94.59-.4 1-.73 1.35-.82.36-.09.58.04.67.39.09.34.01 1.02-.24 2.02zM463.69 113.15c-.33.33-.65.64-.92.98-.27.34-.52.68-.76 1.02-.24.34-.52.65-.85.91-.33.27-.72.5-1.18.71-.36.16-.81.34-1.35.36-.63.03-1.18-.35-1.44-.92-.06-.14-.12-.29-.17-.44-.12-.37-.21-.74-.28-1.11-.06-.37-.1-.65-.11-.82-.04-.81-.01-1.6.07-2.38.08-.78.16-1.57.25-2.36.08-.8.16-1.6.25-2.41.08-.76.1-1.52.07-2.28 0-.09-.04-.18-.1-.25-.55-.58-1.22-.76-2.02-.56-.84.22-1.75.7-2.73 1.45s-1.95 1.68-2.92 2.78a33.06 33.06 0 0 0-2.62 3.42c-.78 1.17-1.41 2.28-1.88 3.34-.47 1.05-.7 1.89-.67 2.52.07 1.52.9 2.24 2.48 2.17a5.26 5.26 0 0 0 2.23-.62c.71-.38 1.4-.83 2.04-1.37.65-.54 1.25-1.12 1.8-1.74.55-.62 1.04-1.21 1.46-1.77.14.53.29 1.11.44 1.75.15.64.36 1.22.64 1.74.28.53.64.97 1.07 1.34.44.37 1 .54 1.68.5.81-.04 1.63-.25 2.46-.63.83-.38 1.58-.87 2.24-1.47.66-.6 1.2-1.27 1.61-2.02.41-.75.6-1.5.57-2.25-.07-.34-.18-.79-1.36.41zm-8.8-5.28c-1.53 4.28-3.54 8.55-7.69 9.68-1.55.42-1.87-1.03-.68-3.33 1.26-2.44 4.22-6.32 6.59-7.94.59-.4 1-.73 1.35-.82.36-.09.58.04.67.39.09.34.01 1.02-.24 2.02zM343.63 108.41c-.34-.61-.73-1.23-1.16-1.85-.43-.62-.81-1.12-1.12-1.49-.26-.41-.61-.69-1.05-.85-.44-.16-.9-.23-1.38-.21-.33.02-.71.18-1.14.5-.43.32-.85.68-1.23 1.11-1.71 1.97-1.87 4.58-1.73 5.55.14.97.4 1.86.8 2.7.4.83.88 1.62 1.46 2.35.57.74 1.14 1.43 1.71 2.07.57.65 1.06 1.25 1.48 1.81.41.56.65 1.11.7 1.65 0 .09.01.2.02.33.01.14-.01.26-.05.36-.04.11-.12.18-.24.23-.12.05-.28.06-.49.04-.66-.09-1.23-.32-1.71-.7-.48-.38-.89-.82-1.23-1.33-.34-.51-.62-1.06-.84-1.66-.22-.6-.42-1.15-.59-1.65-.17-.5-.34-.92-.51-1.28-.17-.35-.34-.55-.52-.6-.09-.03-.23.03-.42.15-.19.13-.3.24-.32.33 0 .03 0 .11.01.25.01.13 0 .28 0 .43-.01.15-.01.28 0 .4 0 .12.01.21.01.27 0 .05.01.11.02.17-.42.3-.83.63-1.24.99-.42.36-.83.72-1.23 1.07-.4.35-1.53 1.45-2.27.37-2.04-2.96-1.62-9.41-1.68-10.01-.06-.6.19-2.74-.22-2.68-.06 0-.92.02-1.14.08-.22.05-.36.2-.41.44-.23 1.47-.52 2.87-.88 4.19-.36 1.32-.85 2.68-1.47 4.08-.19.43-.44.98-.75 1.65-.31.67-2.39 5.16-2.83 5.2l-.69-14.8c-.02-.51-.12-.91-.28-1.22s-.38-.54-.66-.71c-.28-.17-.6-.27-.96-.31-.36-.04-1.66-.15-2.5.16-.44.16-.85.41-1.24.71s-.71.64-.96 1.01-.38.75-.4 1.14c.02.39.14.64.37.77.23.12.52.18.88.16.33-.02.55-.14.65-.39.11-.24.22-.5.34-.78.12-.27.29-.54.52-.79.75-.81 2.16-.3 2.27.7l.66 14.04c.01.33.05.67.09 1.03.05.36.14.7.27 1.02.13.32.32.58.57.78.25.2.57.29.95.27.54-.02 1.02-.31 1.46-.85.44-.54.85-1.21 1.23-1.99s.73-1.63 1.05-2.54c.32-.91.62-1.76.91-2.55.29-.79.58-1.46.87-1.99.29-.54.6-.81.92-.83.03.6.08 1.31.15 2.14.07.84.22 1.63.45 2.38s.59 1.38 1.07 1.9c.49.51 1.16.75 2.03.71.45.04.93-.05 1.44-.27.51-.22 1.01-.51 1.51-.88.49-.37.93-.76 1.33-1.18.09-.1.17-.2.25-.29.04.11.08.21.13.32.38.86.88 1.67 1.5 2.42s1.31 1.36 2.08 1.83 1.57.69 2.41.65c.3-.01.59-.1.88-.27.29-.16.54-.38.76-.64.21-.26.38-.54.5-.83.12-.29.17-.58.16-.88-.03-.72-.22-1.38-.54-1.99-.33-.61-.72-1.2-1.18-1.76-.46-.56-.96-1.11-1.51-1.65s-1.05-1.09-1.51-1.66c-.46-.56-.85-1.15-1.16-1.78-.31-.63-.49-1.31-.52-2.06-.02-.42.01-.9.09-1.46.08-.56.23-1.08.47-1.57.23-.49.54-.91.93-1.25.39-.35.85-.53 1.39-.56.39-.02.71.09.96.33.25.24.47.54.67.89.2.35.38.74.55 1.16.17.43.35.81.55 1.16.2.35.44.64.74.86.29.22.65.33 1.07.31.35-.11.47-.41.36-.91-.13-.5-.35-1.06-.69-1.67zM361.9 116.85c-.16.11-.3.25-.43.4-.13.16-.25.32-.38.49-.13.17-.27.33-.45.49-.52.44-1.06.91-1.64 1.4-.58.49-1.19.95-1.84 1.36-.65.42-1.33.77-2.04 1.06-.7.29-1.41.45-2.13.48-.18.01-.45-.01-.81-.05-.36-.04-.71-.12-1.04-.22h-.02c-.78-.24-1.29-.99-1.32-1.81l-.17-3.67c-.02-.42.12-.81.42-1.19.3-.37.66-.73 1.09-1.08.43-.35.91-.71 1.43-1.1.52-.38 1-.79 1.44-1.21.44-.42.81-.89 1.1-1.4.29-.51.42-1.07.39-1.7-.01-.27-.09-.48-.23-.64-.14-.16-.31-.27-.51-.33a3.2 3.2 0 0 0-.63-.13c-.23-.02-.43-.03-.61-.02-1.13.05-2.01.32-2.63.8-.62.48-1.12 1.08-1.51 1.82-.38.74-.7 1.52-.94 2.35-.25.83-.53 1.63-.85 2.39-.22.49-.46.78-.72.89-.26.1-.51.18-.75.24s-.43.16-.57.3c-.14.14-.2.51-.17 1.11 0 .06.01.17.04.33.02.16.06.3.11.42s.14.2.26.26c.12.05.28.02.49-.11l1.04-.68c.19.89.36 1.72.52 2.48.16.77.4 1.43.74 1.98.34.55.8.96 1.38 1.24.58.27 1.39.38 2.44.33 1.04-.05 2.02-.24 2.93-.59.91-.34 1.77-.78 2.58-1.33.81-.54 1.57-1.16 2.29-1.86.71-.69 1.38-1.42 2-2.2.38-.49.51-1.28.34-1.41-.14-.09-.48 0-.64.11zm-10.95-4.59c.05-.11.15-.22.27-.35.13-.12.24-.23.34-.31.1-.08.15-.09.16-.03.04.15-.05.33-.24.55s-.37.32-.52.29c-.06.01-.06-.05-.01-.15zM387.15 105.65c-.33.02-.56.12-.7.3-.14.19-.23.41-.28.66-.05.26-.07.52-.08.79 0 .27-.01.51-.03.72.01.18-.02.44-.1.79-.07.35-.14.71-.2 1.08-.06.38-.12.72-.18 1.04-.06.32-.1.52-.13.61a11.75 11.75 0 0 1-1.73 3.71c-.8 1.14-1.68 2.19-2.65 3.13a4.683 4.683 0 0 1-1.02.81c-.22.13-.45.25-.68.35-.23.1-.43.16-.57.16-.27.01-.51-.1-.73-.35-.22-.24-.4-.54-.54-.89s-.24-.7-.32-1.04c-.08-.34-.12-.6-.13-.78l-.49-10.55c-.01-.24-.15-.37-.42-.38-.27-.02-.46-.02-.58-.02-.18.01-.47.11-.88.29-.41.18-.86.41-1.36.67-.49.26-1.01.56-1.55.88s-.99.68-1.44.94c-1.19.7-1.5 1.7-1.06 2.33.19.28.53.36.89.34.27-.01.58-.11.93-.29.35-.18.71-.38 1.07-.61.36-.23.7-.47 1.02-.72 1.01-.81 1.26.61 1.34 1.3.08.7.16 1.44.24 2.23.08.79.15 1.53.22 2.23.06.7.12 1.18.16 1.45.02.48.11 1.01.28 1.6.16.59.38 1.14.66 1.65s.63.94 1.05 1.27c.42.34.91.5 1.48.47.72-.03 1.37-.23 1.97-.59.6-.36 1.15-.78 1.67-1.29.51-.5.99-1.04 1.43-1.61.44-.57.85-1.09 1.25-1.56 0 .06.01.16.01.31.01.15.02.31.04.47.02.16.04.32.04.47.01.15.01.24.01.27-.11 5-1.9 22.09-8.57 27.02-1.06.79-4.55 1.84-5.79-3.61-.19-.85-1.58-6.34-.33-14.21.49-3.07-.31-3.01-.78-1.78-.21.56-.38 1.21-.51 1.95s-.23 1.52-.32 2.34c-.08.83-.13 1.62-.16 2.38-.02.76-.03 1.45-.02 2.06.01.61.03 1.05.04 1.32.17 1.64.32 3.08.52 4.32.35 2.24.77 4 1.37 4.93.3.47.72.86 1.15 1.22.44.37.9.65 1.41.85.5.2 1.01.29 1.51.26 1.41.08 2.87-.69 4.4-2.31 1.52-1.63 2.94-3.99 4.24-7.08 1.3-3.09 2.38-6.87 3.23-11.33.85-4.46 1.58-19.32 1.57-19.7-.02-.36-.05-.67-.11-.94-.06-.23-.32-.35-.76-.33zM399.93 107.52c-.16-.59-.43-1.08-.81-1.46-.38-.39-.91-.56-1.59-.53-1.04.05-1.96.29-2.75.71-.79.43-1.47.97-2.05 1.64-.58.67-1.05 1.44-1.42 2.31-.36.87-.64 1.76-.84 2.68-.2.92-.33 1.86-.41 2.82-.07.96-.09 1.86-.05 2.69.01.12.01.29.02.51s.03.46.06.71c.09.72.36 1.42.87 1.93.22.22.49.34.74.46s.52.19.82.21c.3.01.66.01 1.08 0 1.4-.07 2.55-.46 3.46-1.19.91-.73 1.6-1.63 2.09-2.7.49-1.07.82-2.24 1-3.52.18-1.28.24-2.5.19-3.66-.02-.51-.06-1.09-.1-1.74-.05-.66-.15-1.28-.31-1.87zm-1.22 6.58c-.12 1.04-.36 2-.72 2.88s-.89 1.63-1.57 2.25c-.69.62-1.6.95-2.73 1-.33.02-.67.09-1.03.05-.96-.12-1.06-1.5-1.06-1.63-.01-.13-.01-.24-.02-.33-.06-1.37.09-2.69.47-3.94.38-1.26.77-2.57 1.18-3.93.19-.46.41-.78.67-.97.26-.19.53-.34.81-.44.28-.1.54-.17.8-.19.25-.03.47-.09.66-.19.19-.1.34-.27.45-.51.11-.24.15-.61.13-1.08.54-.03.94.1 1.23.37.28.27.49.62.61 1.05.12.43.19.89.2 1.38.01.49.02.95.04 1.36.03.87 0 1.83-.12 2.87z" fill="#FFFFFF"></path>
                                <path class="st7" d="M476.55 102.68c-.66.03-1.39.35-2.2.96-.81.6-1.6 1.31-2.37 2.1-.77.8-1.46 1.6-2.08 2.41-.62.81-1.07 1.44-1.34 1.9l-.29-6.22c-.01-.18-.08-.35-.23-.53a2.9 2.9 0 0 0-.54-.49c-.22-.15-.44-.28-.67-.37-.23-.09-.4-.14-.52-.13-.33.02-.72.12-1.17.32-.45.2-.89.45-1.31.73-.42.29-.78.57-1.08.86-.3.28-.45.54-.43.78.01.27.08.51.21.71.13.2.33.3.6.29.45-.02.77-.06.98-.14.21-.07.34-.14.42-.22.07-.08.12-.16.14-.25.03-.09.08-.18.17-.25.09-.08.24-.15.46-.22.22-.07.57-.12 1.05-.14.06 1.28.12 2.43.18 3.44.06 1.01.09 1.98.09 2.91 0 .93-.05 1.88-.13 2.85-.09.97-.25 2.07-.5 3.27l.01.13c.02.39.16.72.43.99s1.06.26 1.28-.35c.23-.61.53-1.4.9-2.37.37-.97.81-2.06 1.31-3.24.5-1.19 1.07-2.32 1.72-3.4.65-1.08 1.38-2.02 2.17-2.84.8-.81 1.67-1.33 2.62-1.56.3-.01.54.03.72.12.18.1.36.22.53.36s.36.27.58.38c1.55.75.6-1.44.22-2-.4-.57-1.04-.83-1.93-.79zM442.89 113.65s-1.01 1.12-1.54 1.69c-.53.58-1.09 1.11-1.69 1.6-.61.49-1.24.9-1.92 1.23-.67.33-1.38.51-2.12.55-.96.05-1.6-.21-1.94-.76-.34-.55-.53-1.24-.57-2.08-.03-.69-.05-1.46-.06-2.33-.01-.87.06-1.75.21-2.65.15-.9.39-1.74.71-2.52.32-.78.79-1.79 1.48-1.84.45 0 .7.48.8.79.1.31.2.61.29.91.09.29.23.54.42.74.19.2.75.41 1 .05.87-1.23-.99-4.5-1.37-4.96-.38-.46-.88-.68-1.51-.65-.51.02-.94.31-1.3.87-.36.56-.72 1.25-.95 2.11-.6 2.2-1.88 6.3-1.06 11.37.09.55.3 1.02.56 1.41.26.39.61.69 1.05.89.44.2 1.01.29 1.69.26.95-.04 1.86-.24 2.73-.58.86-.34 1.66-.78 2.38-1.32s1.38-1.19 1.97-1.93c.59-.75 1.08-1.56 1.45-2.44.03-.06.04-.45.04-.45-.09-.37-.47-.3-.75.04zM495.43 110.58c-.16.11-.3.25-.43.4-.13.16-.25.32-.38.49-.13.17-.27.33-.45.49-.52.44-1.06.91-1.64 1.4-.58.49-1.19.95-1.84 1.36-.65.42-1.33.77-2.04 1.06-.7.29-1.41.45-2.13.48-.18.01-.45-.01-.81-.05-.36-.04-.71-.12-1.04-.22h-.02c-.78-.24-1.29-.99-1.32-1.81l-.17-3.67c-.02-.42.12-.81.42-1.19.3-.37.66-.73 1.09-1.08.43-.35.91-.71 1.43-1.1.52-.38 1-.79 1.44-1.21.44-.42.81-.89 1.1-1.4.29-.51.42-1.07.39-1.7-.01-.27-.09-.48-.23-.64-.14-.16-.31-.27-.51-.33a3.2 3.2 0 0 0-.63-.13c-.23-.02-.43-.03-.61-.02-1.13.05-2.01.32-2.63.8-.62.48-1.12 1.08-1.51 1.82-.38.74-.7 1.52-.94 2.35-.25.83-.53 1.63-.85 2.39-.22.49-.46.78-.72.89-.26.1-.51.18-.75.24s-.43.16-.57.3c-.14.14-.2.51-.17 1.11 0 .06.01.17.04.33.02.16.06.3.11.42s.14.2.26.26c.12.05.28.02.49-.11l1.04-.68c.19.89.36 1.72.52 2.48.16.77.4 1.43.74 1.98.34.55.8.96 1.38 1.24.58.27 1.39.38 2.44.33 1.04-.05 2.02-.24 2.93-.59.91-.34 1.77-.78 2.58-1.33.81-.54 1.57-1.16 2.29-1.86.71-.69 1.38-1.42 2-2.2.38-.49.51-1.28.34-1.41-.14-.1-.48 0-.64.11zm-10.95-4.59c.05-.11.15-.22.27-.35.13-.12.24-.23.34-.31.1-.08.15-.09.16-.03.04.15-.05.33-.24.55s-.37.32-.52.29c-.06 0-.07-.05-.01-.15zM421.39 114.45c-.45.32-.83.72-1.23 1.07-.4.35-1.53 1.45-2.27.37-2.04-2.96-1.62-9.41-1.68-10.01-.06-.6.19-2.74-.22-2.68-.06 0-.92.02-1.14.08-.22.05-.36.2-.41.44-.23 1.47-.52 2.87-.88 4.19-.36 1.32-.85 2.68-1.47 4.08-.19.43-.44.98-.75 1.65-.31.67-2.39 5.16-2.83 5.2l-.69-14.8c-.02-.51-.12-.91-.28-1.22-.16-.31-.38-.54-.66-.71-.28-.17-.6-.27-.96-.31-.36-.04-1.66-.15-2.5.16-.44.16-.85.41-1.24.71s-.71.64-.96 1.01-.38.75-.4 1.14c.02.39.14.64.37.77.23.12.52.18.88.16.33-.02.55-.14.65-.39.11-.24.22-.5.34-.78.12-.27.29-.54.52-.79.75-.81 2.16-.3 2.27.7l.66 14.04c.01.33.05.67.09 1.03.05.36.14.7.27 1.02.13.32.32.58.57.78.25.2.57.29.95.27.54-.02 1.02-.31 1.46-.85.44-.54.85-1.21 1.23-1.99s.73-1.63 1.05-2.54c.32-.91.62-1.76.91-2.55.29-.79.58-1.46.87-1.99.29-.54.6-.81.92-.83.03.6.08 1.31.15 2.14.07.84.22 1.63.45 2.38s.59 1.38 1.07 1.9c.49.51 1.16.75 2.03.71.45.04.93-.05 1.44-.27.51-.22 1.01-.51 1.51-.88.49-.37 1.02-.69 1.33-1.18.83-1.23.42-2.55-1.42-1.23z" fill="#FFFFFF"></path>
                            </g>
                        </svg>